<svg viewBox="0 0 210 210" xmlns="http://www.w3.org/2000/svg">
<rect height="10" width="10" x="0" y="0"/>
<rect height="10" width="10" x="10" y="0"/>
<rect height="10" width="10" x="20" y="0"/>
<rect height="10" width="10" x="30" y="0"/>
<rect height="10" width="10" x="40" y="0"/>
<rect height="10" width="10" x="50" y="0"/>
<rect height="10" width="10" x="60" y="0"/>
<rect height="10" width="10" x="90" y="0"/>
<rect height="10" width="10" x="100" y="0"/>
<rect height="10" width="10" x="110" y="0"/>
<rect height="10" width="10" x="120" y="0"/>
<rect height="10" width="10" x="140" y="0"/>
<rect height="10" width="10" x="150" y="0"/>
<rect height="10" width="10" x="160" y="0"/>
<rect height="10" width="10" x="170" y="0"/>
<rect height="10" width="10" x="180" y="0"/>
<rect height="10" width="10" x="190" y="0"/>
<rect height="10" width="10" x="200" y="0"/>
<rect height="10" width="10" x="0" y="10"/>
<rect height="10" width="10" x="60" y="10"/>
<rect height="10" width="10" x="120" y="10"/>
<rect height="10" width="10" x="140" y="10"/>
<rect height="10" width="10" x="200" y="10"/>
<rect height="10" width="10" x="0" y="20"/>
<rect height="10" width="10" x="20" y="20"/>
<rect height="10" width="10" x="30" y="20"/>
<rect height="10" width="10" x="40" y="20"/>
<rect height="10" width="10" x="60" y="20"/>
<rect height="10" width="10" x="80" y="20"/>
<rect height="10" width="10" x="100" y="20"/>
<rect height="10" width="10" x="120" y="20"/>
<rect height="10" width="10" x="140" y="20"/>
<rect height="10" width="10" x="160" y="20"/>
<rect height="10" width="10" x="170" y="20"/>
<rect height="10" width="10" x="180" y="20"/>
<rect height="10" width="10" x="200" y="20"/>
<rect height="10" width="10" x="0" y="30"/>
<rect height="10" width="10" x="20" y="30"/>
<rect height="10" width="10" x="30" y="30"/>
<rect height="10" width="10" x="40" y="30"/>
<rect height="10" width="10" x="60" y="30"/>
<rect height="10" width="10" x="80" y="30"/>
<rect height="10" width="10" x="100" y="30"/>
<rect height="10" width="10" x="140" y="30"/>
<rect height="10" width="10" x="160" y="30"/>
<rect height="10" width="10" x="170" y="30"/>
<rect height="10" width="10" x="180" y="30"/>
<rect height="10" width="10" x="200" y="30"/>
<rect height="10" width="10" x="0" y="40"/>
<rect height="10" width="10" x="20" y="40"/>
<rect height="10" width="10" x="30" y="40"/>
<rect height="10" width="10" x="40" y="40"/>
<rect height="10" width="10" x="60" y="40"/>
<rect height="10" width="10" x="80" y="40"/>
<rect height="10" width="10" x="90" y="40"/>
<rect height="10" width="10" x="120" y="40"/>
<rect height="10" width="10" x="140" y="40"/>
<rect height="10" width="10" x="160" y="40"/>
<rect height="10" width="10" x="170" y="40"/>
<rect height="10" width="10" x="180" y="40"/>
<rect height="10" width="10" x="200" y="40"/>
<rect height="10" width="10" x="0" y="50"/>
<rect height="10" width="10" x="60" y="50"/>
<rect height="10" width="10" x="80" y="50"/>
<rect height="10" width="10" x="90" y="50"/>
<rect height="10" width="10" x="110" y="50"/>
<rect height="10" width="10" x="140" y="50"/>
<rect height="10" width="10" x="200" y="50"/>
<rect height="10" width="10" x="0" y="60"/>
<rect height="10" width="10" x="10" y="60"/>
<rect height="10" width="10" x="20" y="60"/>
<rect height="10" width="10" x="30" y="60"/>
<rect height="10" width="10" x="40" y="60"/>
<rect height="10" width="10" x="50" y="60"/>
<rect height="10" width="10" x="60" y="60"/>
<rect height="10" width="10" x="80" y="60"/>
<rect height="10" width="10" x="100" y="60"/>
<rect height="10" width="10" x="120" y="60"/>
<rect height="10" width="10" x="140" y="60"/>
<rect height="10" width="10" x="150" y="60"/>
<rect height="10" width="10" x="160" y="60"/>
<rect height="10" width="10" x="170" y="60"/>
<rect height="10" width="10" x="180" y="60"/>
<rect height="10" width="10" x="190" y="60"/>
<rect height="10" width="10" x="200" y="60"/>
<rect height="10" width="10" x="80" y="70"/>
<rect height="10" width="10" x="100" y="70"/>
<rect height="10" width="10" x="0" y="80"/>
<rect height="10" width="10" x="20" y="80"/>
<rect height="10" width="10" x="30" y="80"/>
<rect height="10" width="10" x="40" y="80"/>
<rect height="10" width="10" x="50" y="80"/>
<rect height="10" width="10" x="60" y="80"/>
<rect height="10" width="10" x="90" y="80"/>
<rect height="10" width="10" x="110" y="80"/>
<rect height="10" width="10" x="140" y="80"/>
<rect height="10" width="10" x="150" y="80"/>
<rect height="10" width="10" x="160" y="80"/>
<rect height="10" width="10" x="170" y="80"/>
<rect height="10" width="10" x="180" y="80"/>
<rect height="10" width="10" x="30" y="90"/>
<rect height="10" width="10" x="80" y="90"/>
<rect height="10" width="10" x="110" y="90"/>
<rect height="10" width="10" x="120" y="90"/>
<rect height="10" width="10" x="130" y="90"/>
<rect height="10" width="10" x="140" y="90"/>
<rect height="10" width="10" x="170" y="90"/>
<rect height="10" width="10" x="180" y="90"/>
<rect height="10" width="10" x="200" y="90"/>
<rect height="10" width="10" x="20" y="100"/>
<rect height="10" width="10" x="30" y="100"/>
<rect height="10" width="10" x="40" y="100"/>
<rect height="10" width="10" x="50" y="100"/>
<rect height="10" width="10" x="60" y="100"/>
<rect height="10" width="10" x="90" y="100"/>
<rect height="10" width="10" x="100" y="100"/>
<rect height="10" width="10" x="120" y="100"/>
<rect height="10" width="10" x="140" y="100"/>
<rect height="10" width="10" x="150" y="100"/>
<rect height="10" width="10" x="170" y="100"/>
<rect height="10" width="10" x="180" y="100"/>
<rect height="10" width="10" x="190" y="100"/>
<rect height="10" width="10" x="20" y="110"/>
<rect height="10" width="10" x="50" y="110"/>
<rect height="10" width="10" x="70" y="110"/>
<rect height="10" width="10" x="80" y="110"/>
<rect height="10" width="10" x="100" y="110"/>
<rect height="10" width="10" x="110" y="110"/>
<rect height="10" width="10" x="120" y="110"/>
<rect height="10" width="10" x="130" y="110"/>
<rect height="10" width="10" x="140" y="110"/>
<rect height="10" width="10" x="170" y="110"/>
<rect height="10" width="10" x="180" y="110"/>
<rect height="10" width="10" x="10" y="120"/>
<rect height="10" width="10" x="20" y="120"/>
<rect height="10" width="10" x="30" y="120"/>
<rect height="10" width="10" x="60" y="120"/>
<rect height="10" width="10" x="70" y="120"/>
<rect height="10" width="10" x="80" y="120"/>
<rect height="10" width="10" x="90" y="120"/>
<rect height="10" width="10" x="100" y="120"/>
<rect height="10" width="10" x="120" y="120"/>
<rect height="10" width="10" x="150" y="120"/>
<rect height="10" width="10" x="200" y="120"/>
<rect height="10" width="10" x="80" y="130"/>
<rect height="10" width="10" x="120" y="130"/>
<rect height="10" width="10" x="150" y="130"/>
<rect height="10" width="10" x="170" y="130"/>
<rect height="10" width="10" x="0" y="140"/>
<rect height="10" width="10" x="10" y="140"/>
<rect height="10" width="10" x="20" y="140"/>
<rect height="10" width="10" x="30" y="140"/>
<rect height="10" width="10" x="40" y="140"/>
<rect height="10" width="10" x="50" y="140"/>
<rect height="10" width="10" x="60" y="140"/>
<rect height="10" width="10" x="90" y="140"/>
<rect height="10" width="10" x="110" y="140"/>
<rect height="10" width="10" x="130" y="140"/>
<rect height="10" width="10" x="160" y="140"/>
<rect height="10" width="10" x="180" y="140"/>
<rect height="10" width="10" x="190" y="140"/>
<rect height="10" width="10" x="0" y="150"/>
<rect height="10" width="10" x="60" y="150"/>
<rect height="10" width="10" x="80" y="150"/>
<rect height="10" width="10" x="100" y="150"/>
<rect height="10" width="10" x="150" y="150"/>
<rect height="10" width="10" x="160" y="150"/>
<rect height="10" width="10" x="170" y="150"/>
<rect height="10" width="10" x="180" y="150"/>
<rect height="10" width="10" x="190" y="150"/>
<rect height="10" width="10" x="0" y="160"/>
<rect height="10" width="10" x="20" y="160"/>
<rect height="10" width="10" x="30" y="160"/>
<rect height="10" width="10" x="40" y="160"/>
<rect height="10" width="10" x="60" y="160"/>
<rect height="10" width="10" x="80" y="160"/>
<rect height="10" width="10" x="110" y="160"/>
<rect height="10" width="10" x="130" y="160"/>
<rect height="10" width="10" x="160" y="160"/>
<rect height="10" width="10" x="190" y="160"/>
<rect height="10" width="10" x="0" y="170"/>
<rect height="10" width="10" x="20" y="170"/>
<rect height="10" width="10" x="30" y="170"/>
<rect height="10" width="10" x="40" y="170"/>
<rect height="10" width="10" x="60" y="170"/>
<rect height="10" width="10" x="80" y="170"/>
<rect height="10" width="10" x="90" y="170"/>
<rect height="10" width="10" x="110" y="170"/>
<rect height="10" width="10" x="120" y="170"/>
<rect height="10" width="10" x="130" y="170"/>
<rect height="10" width="10" x="140" y="170"/>
<rect height="10" width="10" x="150" y="170"/>
<rect height="10" width="10" x="170" y="170"/>
<rect height="10" width="10" x="0" y="180"/>
<rect height="10" width="10" x="20" y="180"/>
<rect height="10" width="10" x="30" y="180"/>
<rect height="10" width="10" x="40" y="180"/>
<rect height="10" width="10" x="60" y="180"/>
<rect height="10" width="10" x="80" y="180"/>
<rect height="10" width="10" x="90" y="180"/>
<rect height="10" width="10" x="120" y="180"/>
<rect height="10" width="10" x="140" y="180"/>
<rect height="10" width="10" x="150" y="180"/>
<rect height="10" width="10" x="180" y="180"/>
<rect height="10" width="10" x="0" y="190"/>
<rect height="10" width="10" x="60" y="190"/>
<rect height="10" width="10" x="90" y="190"/>
<rect height="10" width="10" x="110" y="190"/>
<rect height="10" width="10" x="120" y="190"/>
<rect height="10" width="10" x="130" y="190"/>
<rect height="10" width="10" x="140" y="190"/>
<rect height="10" width="10" x="160" y="190"/>
<rect height="10" width="10" x="170" y="190"/>
<rect height="10" width="10" x="180" y="190"/>
<rect height="10" width="10" x="0" y="200"/>
<rect height="10" width="10" x="10" y="200"/>
<rect height="10" width="10" x="20" y="200"/>
<rect height="10" width="10" x="30" y="200"/>
<rect height="10" width="10" x="40" y="200"/>
<rect height="10" width="10" x="50" y="200"/>
<rect height="10" width="10" x="60" y="200"/>
<rect height="10" width="10" x="80" y="200"/>
<rect height="10" width="10" x="90" y="200"/>
<rect height="10" width="10" x="120" y="200"/>
<rect height="10" width="10" x="160" y="200"/>
<rect height="10" width="10" x="190" y="200"/>
</svg>